<?xml version="1.0" encoding="UTF-8" standalone="no"?>
<!-- Created with Inkscape (http://www.inkscape.org/) -->

<svg
   xmlns:dc="http://purl.org/dc/elements/1.1/"
   xmlns:cc="http://creativecommons.org/ns#"
   xmlns:rdf="http://www.w3.org/1999/02/22-rdf-syntax-ns#"
   xmlns:svg="http://www.w3.org/2000/svg"
   xmlns="http://www.w3.org/2000/svg"
   xmlns:sodipodi="http://sodipodi.sourceforge.net/DTD/sodipodi-0.dtd"
   xmlns:inkscape="http://www.inkscape.org/namespaces/inkscape"
   width="237.36929"
   height="110.7928"
   id="svg4837"
   version="1.1"
   inkscape:version="0.48.2 r9819"
   sodipodi:docname="New document 8">
  <defs
     id="defs4839" />
  <sodipodi:namedview
     id="base"
     pagecolor="#ffffff"
     bordercolor="#666666"
     borderopacity="1.0"
     inkscape:pageopacity="0.0"
     inkscape:pageshadow="2"
     inkscape:zoom="0.98994949"
     inkscape:cx="259.76814"
     inkscape:cy="40.769955"
     inkscape:document-units="px"
     inkscape:current-layer="layer1"
     showgrid="false"
     fit-margin-top="10"
     fit-margin-left="10"
     fit-margin-right="10"
     fit-margin-bottom="10"
     inkscape:window-width="1676"
     inkscape:window-height="1006"
     inkscape:window-x="4"
     inkscape:window-y="0"
     inkscape:window-maximized="1" />
  <metadata
     id="metadata4842">
    <rdf:RDF>
      <cc:Work
         rdf:about="">
        <dc:format>image/svg+xml</dc:format>
        <dc:type
           rdf:resource="http://purl.org/dc/dcmitype/StillImage" />
        <dc:title></dc:title>
      </cc:Work>
    </rdf:RDF>
  </metadata>
  <g
     inkscape:label="Layer 1"
     inkscape:groupmode="layer"
     id="layer1"
     transform="translate(-255.43458,-207.38101)">
    <path
       style="fill:#000000"
       d="m 466.33424,306.48462 0,-1.6892 3.16724,0 3.16723,0 0,1.6892 0,1.68919 -3.16723,0 -3.16724,0 0,-1.68919 z m -3.37839,-5.06759 0,-3.37839 1.47804,0 1.47805,0 0,3.37839 0,3.37839 -1.47805,0 -1.47804,0 0,-3.37839 z m 10.13516,0 0,-3.37839 1.47804,0 1.47805,0 0,3.37839 0,3.37839 -1.47805,0 -1.47804,0 0,-3.37839 z m -30.82778,-28.92744 0,-28.92744 1.68919,0 c 1.68919,0 1.68919,0 1.68919,1.68919 0,1.6892 0,1.6892 1.6892,1.6892 1.68919,0 1.68919,0 1.68919,1.68919 0,1.6892 0,1.6892 1.6892,1.6892 1.68919,0 1.68919,0 1.68919,1.68919 0,1.6892 0,1.6892 -1.68919,1.6892 -1.6892,0 -1.6892,0 -1.6892,-1.6892 0,-1.68919 0,-1.68919 -1.68919,-1.68919 l -1.6892,0 0,23.85986 0,23.85985 1.6892,0 c 1.68919,0 1.68919,0 1.68919,1.6892 l 0,1.68919 -3.37839,0 -3.37838,0 0,-28.92744 z m 7.00029,25.22951 c -0.13394,-0.13393 -0.24352,-0.87696 -0.24352,-1.65118 0,-1.36423 0.0529,-1.40766 1.71469,-1.40766 l 1.71468,0 -0.13106,1.58362 c -0.12024,1.45279 -0.24178,1.5892 -1.47117,1.65118 -0.73706,0.0372 -1.44968,-0.042 -1.58362,-0.17596 z m 10.14204,-0.0392 c -0.13814,-0.22352 -0.20454,-1.7545 -0.14756,-3.40219 l 0.10361,-2.99581 1.60373,0 1.60374,0 -0.12334,3.27282 -0.12334,3.27281 -1.33284,0.12938 c -0.73305,0.0712 -1.44586,-0.0535 -1.584,-0.27702 z m 10.30707,-3.03247 0,-3.36553 1.47803,0 1.47805,0 0,3.30997 0,3.30996 -1.47805,0.0556 -1.47803,0.0556 0,-3.36553 z m -17.03271,-0.26872 c -0.15484,-0.15483 -0.28153,-0.91497 -0.28153,-1.68919 0,-1.36073 0.0563,-1.40766 1.68919,-1.40766 1.6892,0 1.6892,0 1.6892,1.6892 0,1.63289 -0.0469,1.68919 -1.40766,1.68919 -0.77422,0 -1.53436,-0.12669 -1.6892,-0.28154 z m 3.09686,-4.99719 c 0,-1.44286 0.0402,-1.47804 1.68919,-1.47804 1.64898,0 1.68919,0.0352 1.68919,1.47804 0,1.44285 -0.0402,1.47805 -1.68919,1.47805 -1.64898,0 -1.68919,-0.0352 -1.68919,-1.47805 z m 10.55746,-1.68919 0,-3.16724 6.75677,0 6.75678,0 0,-1.68919 c 0,-1.64898 0.0351,-1.6892 1.47804,-1.6892 l 1.47804,0 0,3.15652 0,3.15651 -6.6512,0.1163 -6.65119,0.1163 -0.13108,1.58361 c -0.12394,1.49763 -0.20994,1.58363 -1.58361,1.58363 l -1.45255,0 0,-3.16724 z m 10.13516,-8.44597 c 0,-1.40766 0.0704,-1.47804 1.47804,-1.47804 1.40766,0 1.47805,0.0704 1.47805,1.47804 0,1.40766 -0.0704,1.47804 -1.47805,1.47804 -1.40766,0 -1.47804,-0.0704 -1.47804,-1.47804 z m -3.37839,-3.37839 c 0,-1.40766 0.0704,-1.47804 1.47804,-1.47804 1.40767,0 1.47805,0.0704 1.47805,1.47804 0,1.40767 -0.0704,1.47805 -1.47805,1.47805 -1.40765,0 -1.47804,-0.0704 -1.47804,-1.47805 z m -3.37838,-3.37839 c 0,-1.40765 0.0704,-1.47804 1.47803,-1.47804 1.40767,0 1.47805,0.0704 1.47805,1.47804 0,1.40767 -0.0704,1.47805 -1.47805,1.47805 -1.40765,0 -1.47803,-0.0704 -1.47803,-1.47805 z m -3.37839,-3.48871 c 0,-1.52897 0.0553,-1.58931 1.47804,-1.61346 1.43567,-0.0244 1.47804,0.0211 1.47804,1.58838 0,1.56241 -0.0467,1.61345 -1.47804,1.61345 -1.42721,0 -1.47804,-0.0546 -1.47804,-1.58837 z m -3.37839,-3.47921 c 0,-1.64897 0.0351,-1.68919 1.47804,-1.68919 1.44285,0 1.47805,0.0402 1.47805,1.68919 0,1.64898 -0.0352,1.6892 -1.47805,1.6892 -1.44285,0 -1.47804,-0.0403 -1.47804,-1.6892 z m -3.45076,-3.37839 c 0.15328,-1.60738 0.23052,-1.68919 1.59478,-1.68919 1.3911,0 1.43368,0.0502 1.43368,1.68919 0,1.67253 -0.0157,1.6892 -1.59478,1.6892 l -1.59477,0 0.16109,-1.6892 z m -3.30601,-3.37838 c 0,-1.64898 0.0351,-1.6892 1.47804,-1.6892 1.44285,0 1.47804,0.0402 1.47804,1.6892 0,1.64897 -0.0352,1.68919 -1.47804,1.68919 -1.44286,0 -1.47804,-0.0402 -1.47804,-1.68919 z m -3.72061,-3.27282 c 0.12395,-1.49762 0.21706,-1.59073 1.71468,-1.71468 l 1.58363,-0.13107 0,1.71469 0,1.71468 -1.71469,0 -1.71468,0 0.13106,-1.58362 z"
       id="path4856"
       inkscape:connector-curvature="0" />
    <path
       style="fill:#000000"
       d="m 271.34527,247.46047 c 0,-1.32826 -0.94153,-2.12734 -3.05297,-2.59109 -4.04056,-0.88746 -3.19986,-3.08429 1.01754,-2.65894 9.32239,0.94022 10.81407,-3.50307 2.60795,-7.76831 -2.71012,-1.40862 -5.36388,-3.27897 -5.89726,-4.15634 -1.47604,-2.42802 -0.0246,-6.42458 2.80076,-7.7119 1.48697,-0.67751 2.52398,-1.98054 2.52398,-3.17144 0,-1.13017 0.66136,-2.02144 1.5,-2.02144 0.825,0 1.5,0.85122 1.5,1.89159 0,1.19765 0.94321,2.12832 2.57104,2.53688 3.91591,0.98283 2.39946,3.10499 -1.95093,2.73019 -6.99788,-0.60291 -8.93527,3.8291 -2.87011,6.5657 9.0905,4.10163 11.015,9.73021 4.5,13.16112 -1.2375,0.65169 -2.25,2.06905 -2.25,3.1497 0,1.08065 -0.675,1.96482 -1.5,1.96482 -0.825,0 -1.5,-0.86425 -1.5,-1.92054 z m 38.357,-3.07104 c -4.57947,-1.84804 -6.77791,-8.48491 -4.32736,-13.06381 2.11183,-3.94599 10.30093,-6.28597 13.9414,-3.98367 2.2687,1.43477 0.36183,2.48777 -3.94232,2.177 -6.96682,-0.50302 -10.61631,6.27447 -5.91184,10.97894 1.71218,1.71218 2.95483,2.02243 6.5,1.62284 3.13626,-0.35351 4.38312,-0.13272 4.38312,0.77613 0,2.4062 -6.21813,3.27822 -10.643,1.49257 z m 21.1997,-1.23093 c -1.16379,-1.66155 -1.5567,-4.81653 -1.5567,-12.5 l 0,-10.27749 -2.5,0 c -1.55556,0 -2.5,-0.56667 -2.5,-1.5 0,-1.08333 1.11111,-1.5 4,-1.5 l 4,0 0.0153,11.25 c 0.008,6.1875 0.41056,11.87411 0.89363,12.63691 0.54214,0.85607 1.88505,1.19446 3.50856,0.88411 2.94677,-0.56331 4.58181,0.98192 2.46061,2.32547 -2.5829,1.63598 -6.70984,0.98184 -8.32141,-1.319 z m 20.4433,0.22251 c -1.55556,-1.55556 -2,-3.33333 -2,-8 0,-5.73333 -0.11111,-6 -2.5,-6 -1.55556,0 -2.5,-0.56667 -2.5,-1.5 0,-1.08333 1.11111,-1.5 4,-1.5 l 4,0 0.0153,6.75 c 0.0183,8.04891 0.82623,9.70461 4.40219,9.02102 2.94677,-0.56331 4.58181,0.98192 2.46061,2.32547 -2.3358,1.47948 -5.78176,0.99986 -7.87811,-1.09649 z m 18.357,1.00842 c -4.57947,-1.84804 -6.77791,-8.48491 -4.32736,-13.06381 2.11183,-3.94599 10.30093,-6.28597 13.9414,-3.98367 2.2687,1.43477 0.36183,2.48777 -3.94232,2.177 -6.96682,-0.50302 -10.61631,6.27447 -5.91184,10.97894 1.71218,1.71218 2.95483,2.02243 6.5,1.62284 3.13626,-0.35351 4.38312,-0.13272 4.38312,0.77613 0,2.4062 -6.21813,3.27822 -10.643,1.49257 z m 15.86478,-12.67646 c 0.20032,-9.84119 0.6282,-13.78431 1.52822,-14.08333 0.9358,-0.31091 1.25628,1.80502 1.275,8.41804 l 0.025,8.83333 4.01111,-4.25 c 2.32594,-2.46446 4.92367,-4.25 6.18321,-4.25 1.8968,0 1.6121,0.57059 -2.24643,4.50214 l -4.41851,4.50213 4.92271,4.99787 c 3.84161,3.90023 4.49929,4.99786 2.99467,4.99786 -1.06044,0 -4.08102,-2.12058 -6.71241,-4.71241 l -4.78435,-4.71241 0,4.71241 c 0,3.56082 -0.37346,4.71241 -1.52822,4.71241 -1.30999,0 -1.48849,-1.95179 -1.25,-13.66804 z m -37.85759,-9.82527 c -0.34636,-0.90262 -0.15025,-2.12063 0.43581,-2.70669 1.52361,-1.52361 4.41041,-0.13109 4.01242,1.93549 -0.4433,2.30188 -3.64766,2.85743 -4.44823,0.7712 z"
       id="path4887"
       inkscape:connector-curvature="0" />
    <path
       style="fill:#000000;fill-opacity:1;stroke:none"
       d="m 411.32164,243.39982 c 7.38153,0.15924 14.76525,0.0821 22.14736,0.0136 -3.6814,3.83663 -9.42739,1.45689 -14.06576,2.07921 -3.69684,-0.007 -7.3939,0.0151 -11.09,0.0923 1.0029,-0.72825 2.00505,-1.45754 3.0084,-2.18514 z"
       id="path4889"
       inkscape:connector-curvature="0" />
  </g>
</svg>
