<?xml version="1.0" encoding="UTF-8" standalone="no"?>
<!DOCTYPE svg PUBLIC "-//W3C//DTD SVG 1.1//EN" "http://www.w3.org/Graphics/SVG/1.1/DTD/svg11.dtd">
<svg width="100%" height="100%" viewBox="0 0 500 500" version="1.1" xmlns="http://www.w3.org/2000/svg" xmlns:xlink="http://www.w3.org/1999/xlink" xml:space="preserve" xmlns:serif="http://www.serif.com/" style="fill-rule:evenodd;clip-rule:evenodd;stroke-linejoin:round;stroke-miterlimit:2;">
    <rect id="Logo" x="0" y="0" width="500" height="500" style="fill:none;"/>
    <g>
        <path id="Box" d="M500,50l0,400c0,27.596 -22.404,50 -50,50l-400,0c-27.596,0 -50,-22.404 -50,-50l0,-400c0,-27.596 22.404,-50 50,-50l400,0c27.596,0 50,22.404 50,50Z" style="fill:url(#_Linear1);"/>
        <path id="Shadow" d="M500,432.911l0,17.089c0,27.596 -22.404,50 -50,50l-211.576,0l-105.636,-105.637c3.812,3.641 8.857,5.637 13.903,5.637c5.196,0 10.391,-2.117 14.24,-5.965l54.843,-50.417l-40.218,-0l-12.701,-12.701l65.234,-0.192l68.891,-61.193c5.195,-5.581 7.889,-12.701 7.697,-20.013c0.192,-6.735 -2.502,-14.048 -7.697,-19.628l203.02,203.02Zm-284.804,-276.529l12.124,12.123l-63.503,0l-12.123,-12.123l63.502,0Zm153.945,211.674c9.622,-7.312 4.619,-22.706 -7.697,-22.706l-88.711,-0c-3.271,-0 -6.157,1.154 -8.467,3.271l-32.905,29.442c-8.467,7.697 -3.079,21.937 8.467,21.937l81.975,0c2.694,0 5.388,-0.962 7.505,-2.502l39.833,-29.442Z" style="fill:#493e5e;"/>
        <g id="Icon">
            <path d="M369.141,368.056l-39.833,29.442c-2.117,1.54 -4.811,2.502 -7.505,2.502l-81.975,0c-11.546,0 -16.934,-14.24 -8.467,-21.937l32.905,-29.442c2.31,-2.117 5.196,-3.271 8.467,-3.271l88.711,-0c12.316,-0 17.319,15.394 7.697,22.706Z" style="fill:#fff;fill-rule:nonzero;"/>
            <path d="M215.774,343.618l-54.843,50.417c-3.849,3.848 -9.044,5.965 -14.24,5.965c-5.196,0 -10.391,-2.117 -14.24,-5.965c-8.082,-8.082 -8.082,-20.59 0,-28.48l19.628,-21.937l63.695,-0Z" style="fill:#fff;fill-rule:nonzero;"/>
            <path d="M296.98,229.891l-68.313,-61.386l-65.812,0l74.471,81.206l-74.471,81.206l65.234,-0.192l68.891,-61.193c5.195,-5.581 7.889,-12.701 7.697,-20.013c0.192,-6.735 -2.502,-14.048 -7.697,-19.628Z" style="fill:#fff;fill-rule:nonzero;"/>
            <path d="M215.196,156.382l-54.842,-50.417c-3.849,-3.848 -9.045,-5.965 -14.24,-5.965c-5.196,0 -10.392,2.117 -14.24,5.965c-8.082,8.082 -8.082,20.59 -0,28.48l19.82,21.937l63.502,0Z" style="fill:#fff;fill-rule:nonzero;"/>
        </g>
    </g>
    <defs>
        <linearGradient id="_Linear1" x1="0" y1="0" x2="1" y2="0" gradientUnits="userSpaceOnUse" gradientTransform="matrix(3.06162e-14,500,-500,3.06162e-14,267.59,0)"><stop offset="0" style="stop-color:#d8a9ca;stop-opacity:1"/><stop offset="1" style="stop-color:#53519b;stop-opacity:1"/></linearGradient>
    </defs>
</svg>
