<?xml version="1.0" encoding="UTF-8" standalone="no"?>
<!DOCTYPE svg PUBLIC "-//W3C//DTD SVG 1.1//EN" "http://www.w3.org/Graphics/SVG/1.1/DTD/svg11.dtd">
<svg width="100%" height="100%" viewBox="0 0 679 300" version="1.1" xmlns="http://www.w3.org/2000/svg" xmlns:xlink="http://www.w3.org/1999/xlink" xml:space="preserve" xmlns:serif="http://www.serif.com/" style="fill-rule:evenodd;clip-rule:evenodd;stroke-linejoin:round;stroke-miterlimit:2;">
    <g>
        <path id="Name" d="M410.6,166.725l19.35,0c0,13.6 -3.4,24.05 -10.2,31.35c-6.8,7.3 -16.4,10.95 -28.8,10.95c-27.3,0 -40.95,-16.05 -40.95,-48.15l0,-9c0,-25.3 7,-41.15 21,-47.55c5.5,-2.6 12.15,-3.9 19.95,-3.9c11.4,0 20.675,3.125 27.825,9.375c7.15,6.25 10.725,15.275 10.725,27.075l-19.5,0c-1.1,-5.9 -3.05,-10.35 -5.85,-13.35c-2.8,-3 -7.2,-4.5 -13.2,-4.5c-7,0 -12.2,2.2 -15.6,6.6c-2.4,3.1 -3.8,8.4 -4.2,15.9c-0.2,2.4 -0.3,5.65 -0.3,9.75l0,9.3c0,11.5 1.6,19.35 4.8,23.55c3.3,4.2 8.425,6.3 15.375,6.3c6.95,0 11.75,-1.925 14.4,-5.775c2.65,-3.85 4.375,-9.825 5.175,-17.925Z" style="fill-rule:nonzero;"/>
        <path d="M464.9,208.125l-19.5,0.15l0,-112.95l19.5,0l0,112.8Z" style="fill-rule:nonzero;"/>
        <path d="M495.8,89.775c4.7,0 7.75,0.725 9.15,2.175c1.4,1.45 2.1,4.5 2.1,9.15c0,4.65 -0.725,7.7 -2.175,9.15c-1.45,1.45 -4.5,2.175 -9.15,2.175c-4.65,0 -7.7,-0.75 -9.15,-2.25c-1.45,-1.5 -2.175,-4.55 -2.175,-9.15c0,-4.6 0.725,-7.625 2.175,-9.075c1.45,-1.45 4.525,-2.175 9.225,-2.175Zm9.6,118.35l-19.5,0l0,-82.5l19.5,0l0,82.5Z" style="fill-rule:nonzero;"/>
        <path d="M570.95,176.775l17.7,-0.15c-0.1,0.8 -0.2,2.25 -0.3,4.35c-0.1,2.1 -0.175,3.525 -0.225,4.275c-0.05,0.75 -0.175,1.925 -0.375,3.525c-0.2,1.6 -0.425,2.775 -0.675,3.525c-0.25,0.75 -0.575,1.725 -0.975,2.925c-1.8,5.2 -6.7,9.3 -14.7,12.3c-5.1,1.8 -10.425,2.7 -15.975,2.7c-5.55,-0 -10.575,-0.9 -15.075,-2.7c-4.5,-1.8 -8.05,-4.1 -10.65,-6.9c-5.9,-6.2 -8.85,-17.825 -8.85,-34.875c0,-17.05 2.95,-28.675 8.85,-34.875c2.6,-2.8 6.15,-5.1 10.65,-6.9c4.5,-1.8 9.5,-2.7 15,-2.7c10.8,0 19,2.7 24.6,8.1c5.6,5.4 8.4,12.9 8.4,22.5l-17.7,0c0,-4.4 -1.1,-7.675 -3.3,-9.825c-2.2,-2.15 -6.275,-3.225 -12.225,-3.225c-5.95,-0 -9.9,1.85 -11.85,5.55c-1.95,3.7 -2.925,9.25 -2.925,16.65l0,7.8c0,11.9 2.3,19.2 6.9,21.9c2.1,1.3 4.85,1.95 8.25,1.95c3.4,-0 6.175,-0.325 8.325,-0.975c2.15,-0.65 3.7,-1.775 4.65,-3.375c0.95,-1.6 1.575,-3.175 1.875,-4.725c0.3,-1.55 0.5,-3.825 0.6,-6.825Z" style="fill-rule:nonzero;"/>
        <path d="M678.65,208.125l-23.4,0l-22.5,-30.3l-8.55,12.15l0,18.15l-19.5,0l0,-112.8l19.5,0l0,71.25l27.3,-40.65l22.05,0l-28.05,38.4l33.15,43.8Z" style="fill-rule:nonzero;"/>
        <g id="Logo">
            <path id="Box" d="M300,30l0,240c0,16.557 -13.443,30 -30,30l-240,-0c-16.557,-0 -30,-13.443 -30,-30l0,-240c0,-16.557 13.443,-30 30,-30l240,0c16.557,0 30,13.443 30,30Z" style="fill:url(#_Linear1);"/>
            <path id="Shadow" d="M300,259.747l0,10.253c0,16.557 -13.443,30 -30,30l-126.946,-0l-63.381,-63.382c2.287,2.184 5.314,3.382 8.342,3.382c3.117,0 6.234,-1.27 8.544,-3.579l32.905,-30.25l-24.131,-0l-7.62,-7.621l39.141,-0.115l41.334,-36.716c3.117,-3.348 4.734,-7.62 4.618,-12.008c0.116,-4.041 -1.501,-8.428 -4.618,-11.776l121.812,121.812Zm-170.882,-165.918l7.274,7.274l-38.102,0l-7.273,-7.274l38.101,0Zm92.367,127.005c5.773,-4.388 2.771,-13.624 -4.619,-13.624l-53.226,-0c-1.963,-0 -3.695,0.693 -5.08,1.963l-19.744,17.665c-5.08,4.618 -1.847,13.162 5.081,13.162l49.185,0c1.616,0 3.233,-0.577 4.503,-1.501l23.9,-17.665Z" style="fill:#493e5e;"/>
            <g id="Icon">
                <path d="M221.485,220.834l-23.9,17.665c-1.27,0.924 -2.887,1.501 -4.503,1.501l-49.185,0c-6.928,0 -10.161,-8.544 -5.081,-13.162l19.744,-17.665c1.385,-1.27 3.117,-1.963 5.08,-1.963l53.226,-0c7.39,-0 10.392,9.236 4.619,13.624Z" style="fill:#fff;fill-rule:nonzero;"/>
                <path d="M129.464,206.171l-32.905,30.25c-2.31,2.309 -5.427,3.579 -8.544,3.579c-3.118,0 -6.235,-1.27 -8.544,-3.579c-4.85,-4.849 -4.85,-12.354 -0,-17.088l11.776,-13.162l38.217,-0Z" style="fill:#fff;fill-rule:nonzero;"/>
                <path d="M178.188,137.935l-40.988,-36.832l-39.487,0l44.683,48.724l-44.683,48.723l39.141,-0.115l41.334,-36.716c3.117,-3.348 4.734,-7.62 4.618,-12.008c0.116,-4.041 -1.501,-8.428 -4.618,-11.776Z" style="fill:#fff;fill-rule:nonzero;"/>
                <path d="M129.118,93.829l-32.906,-30.25c-2.309,-2.309 -5.426,-3.579 -8.544,-3.579c-3.117,0 -6.235,1.27 -8.544,3.579c-4.849,4.849 -4.849,12.354 0,17.088l11.893,13.162l38.101,0Z" style="fill:#fff;fill-rule:nonzero;"/>
            </g>
        </g>
    </g>
    <defs>
        <linearGradient id="_Linear1" x1="0" y1="0" x2="1" y2="0" gradientUnits="userSpaceOnUse" gradientTransform="matrix(1.83697e-14,300,-300,1.83697e-14,160.554,0)"><stop offset="0" style="stop-color:#d8a9ca;stop-opacity:1"/><stop offset="1" style="stop-color:#53519b;stop-opacity:1"/></linearGradient>
    </defs>
</svg>
