<?xml version="1.0" encoding="UTF-8" standalone="no"?><!DOCTYPE svg PUBLIC "-//W3C//DTD SVG 1.1//EN" "http://www.w3.org/Graphics/SVG/1.1/DTD/svg11.dtd"><svg width="100%" height="100%" viewBox="0 0 794 272" version="1.1" xmlns="http://www.w3.org/2000/svg" xmlns:xlink="http://www.w3.org/1999/xlink" xml:space="preserve" xmlns:serif="http://www.serif.com/" style="fill-rule:evenodd;clip-rule:evenodd;stroke-linejoin:round;stroke-miterlimit:2;"><g><g><path d="M793.2,213.1l-31.2,0l-30,-40.4l-11.4,16.2l0,24.2l-26,0l0,-150.4l26,0l0,95l36.4,-54.2l29.4,0l-37.4,51.2l44.2,58.4Z" style="fill:#2a2123;fill-rule:nonzero;"/><path d="M639.6,171.3l23.6,-0.2c-0.8,7.9 -0.2,17.3 -3.4,24.8c-10.9,24.2 -57.7,26.3 -75.2,7.2c-15.7,-13.1 -15.7,-79.9 0,-93c26,-24.8 80.9,-13.8 78.2,28l-23.6,0c0,-5.9 -1.5,-10.2 -4.4,-13.1c-5.4,-5.8 -28.6,-6.6 -32.1,3.1c-4,6.1 -4.1,22.7 -3.9,32.6c0,15.9 3.1,25.6 9.2,29.2c5.1,3.5 16.7,3 22.1,1.3c9,-3.2 9,-11.1 9.5,-19.9Z" style="fill:#2a2123;fill-rule:nonzero;"/><path d="M529.4,55.3c6.3,0 10.3,1 12.2,2.9c1.9,1.9 2.8,6 2.8,12.2c0,6.2 -1,10.3 -2.9,12.2c-1.9,1.9 -6,2.9 -12.2,2.9c-6.2,-0 -10.3,-1 -12.2,-3c-1.9,-2 -2.9,-6.1 -2.9,-12.2c0,-6.1 1,-10.2 2.9,-12.1c1.9,-1.9 6,-2.9 12.3,-2.9Zm12.8,157.8l-26,0l0,-110l26,0l0,110Z" style="fill:#2a2123;fill-rule:nonzero;"/><path d="M478.2,213.1l-26,0.2l0,-150.6l26,0l0,150.4Z" style="fill:#2a2123;fill-rule:nonzero;"/><path d="M395.8,157.9l25.8,-0c0.2,34.5 -17.5,56.5 -52,56.4c-41.6,2.1 -55,-31.1 -54.6,-76.2c0.4,-46.4 16.2,-68.3 54.6,-68.6c30,-0.1 51.9,17.3 51.4,48.6l-26,-0c-1.5,-7.9 -4.1,-13.8 -7.8,-17.8c-8,-9.1 -31.7,-7.7 -38.4,2.8c-7.4,9.6 -5.8,32.5 -6,46.6c0.6,25.2 3.1,38.8 26.9,39.8c20.8,-0.2 23.5,-12.2 26.1,-31.6Z" style="fill:#2a2123;fill-rule:nonzero;"/></g><g><path d="M241.8,271.1l-212.5,0c-16.2,0 -29.3,-13.1 -29.3,-29.3l-0,-212.5c-0,-16.2 13.1,-29.3 29.3,-29.3l212.5,-0c16.2,-0 29.3,13.1 29.3,29.3l0,212.5c0,16.2 -13.1,29.3 -29.3,29.3Z" style="fill:url(#_Linear1);fill-rule:nonzero;"/><g><path d="M127.4,91.7l-34.2,0l-5.9,-6.4l33.1,0l7,6.4Z" style="fill:#493e5e;fill-rule:nonzero;"/><path d="M139.6,271.1l-61.9,-61.9c1.9,1.8 4.5,2.7 7,2.7c2.7,0 5.4,-1.1 7.4,-3.1l28.5,-26.2l-20.8,0l-6.6,-6.5l33.9,-0.1l35.8,-31.8c2.7,-2.9 4.1,-6.6 4,-10.4c0,-3.7 -1.3,-7.5 -4,-10.4l108.2,108.249l0,10.151c0,0.033 -0,0.067 -0,0.1c-0,16.2 -13.1,29.3 -29.3,29.3l-102.2,-0.1Z" style="fill:#493e5e;"/></g><g><path d="M200.4,195.3l-20.7,15.3c-1.1,0.8 -2.5,1.3 -3.9,1.3l-42.6,-0c-6,-0 -8.8,-7.4 -4.4,-11.4l17.1,-15.3c1.2,-1.1 2.7,-1.7 4.4,-1.7l46.1,-0c6.4,-0 9,8 4,11.8Z" style="fill:#fff;fill-rule:nonzero;"/><g><path d="M120.7,182.6l-28.5,26.2c-2,2 -4.7,3.1 -7.4,3.1c-2.7,0 -5.4,-1.1 -7.4,-3.1c-4.2,-4.2 -4.2,-10.7 0,-14.8l10.2,-11.4l33.1,0Z" style="fill:#fff;fill-rule:nonzero;"/><path d="M120.4,85.3l-33,0l-10.3,-11.4c-4.2,-4.1 -4.2,-10.6 0,-14.8c2,-2 4.7,-3.1 7.4,-3.1c2.7,0 5.4,1.1 7.4,3.1l28.5,26.2Z" style="fill:#fff;fill-rule:nonzero;"/><path d="M162.9,123.5c2.7,2.9 4.1,6.7 4,10.2c0.1,3.8 -1.3,7.5 -4,10.4l-35.8,31.8l-33.9,0.1l38.7,-42.2l-38.7,-42.2l34.2,0l35.5,31.9Z" style="fill:#fff;fill-rule:nonzero;"/></g></g></g></g><defs><linearGradient id="_Linear1" x1="0" y1="0" x2="1" y2="0" gradientUnits="userSpaceOnUse" gradientTransform="matrix(-3.0061,271.062,-271.062,-3.0061,137.056,-2.4704)"><stop offset="0" style="stop-color:#d8a9ca;stop-opacity:1"/><stop offset="1" style="stop-color:#53519b;stop-opacity:1"/></linearGradient></defs></svg>
