<?xml version="1.0" encoding="UTF-8" standalone="no"?><!DOCTYPE svg PUBLIC "-//W3C//DTD SVG 1.1//EN" "http://www.w3.org/Graphics/SVG/1.1/DTD/svg11.dtd"><svg width="100%" height="100%" viewBox="0 0 419 615" version="1.1" xmlns="http://www.w3.org/2000/svg" xmlns:xlink="http://www.w3.org/1999/xlink" xml:space="preserve" xmlns:serif="http://www.serif.com/" style="fill-rule:evenodd;clip-rule:evenodd;stroke-linejoin:round;stroke-miterlimit:2;"><g><g><path d="M418.6,611.848l-27.318,-0l-26.281,-35.359l-9.942,14.178l-0,21.181l-22.736,-0l-0,-131.664l22.736,-0l-0,83.165l31.9,-47.461l25.762,-0l-32.764,44.781l38.643,51.179Z" style="fill:#2a2123;fill-rule:nonzero;"/><path d="M284.17,575.193l20.661,-0.173c-0.691,6.916 -0.259,15.129 -2.939,21.699c-9.596,21.18 -50.487,22.996 -65.789,6.311c-13.745,-11.412 -13.745,-69.939 0,-81.437c22.737,-21.699 70.803,-12.103 68.469,24.466l-20.662,-0c0,-5.101 -1.296,-8.991 -3.89,-11.498c-4.668,-5.101 -24.984,-5.792 -28.096,2.68c-3.458,5.36 -3.631,19.884 -3.372,28.529c0,13.918 2.68,22.39 8.04,25.589c4.409,3.112 14.61,2.593 19.365,1.124c7.694,-2.594 7.78,-9.51 8.213,-17.29Z" style="fill:#2a2123;fill-rule:nonzero;"/><path d="M187.691,473.7c5.446,-0 9.077,0.865 10.72,2.507c1.642,1.729 2.421,5.274 2.421,10.72c-0,5.446 -0.865,8.991 -2.508,10.72c-1.729,1.729 -5.273,2.507 -10.719,2.507c-5.447,-0 -8.991,-0.865 -10.72,-2.594c-1.729,-1.729 -2.507,-5.273 -2.507,-10.72c-0,-5.359 0.864,-8.904 2.507,-10.633c1.729,-1.642 5.273,-2.507 10.806,-2.507Zm11.239,138.148l-22.737,-0l0,-96.306l22.737,-0l-0,96.306Z" style="fill:#2a2123;fill-rule:nonzero;"/><path d="M142.91,611.848l-22.737,0.173l0,-131.837l22.737,-0l-0,131.664Z" style="fill:#2a2123;fill-rule:nonzero;"/><path d="M70.724,563.522l22.563,-0c0.173,30.171 -15.301,49.45 -45.473,49.363c-36.395,1.816 -48.152,-27.232 -47.807,-66.74c0.346,-40.631 14.178,-59.737 47.807,-60.083c26.195,-0.086 45.387,15.129 44.955,42.534l-22.737,-0c-1.297,-6.916 -3.544,-12.103 -6.829,-15.561c-7.003,-7.954 -27.751,-6.657 -33.63,2.421c-6.483,8.472 -5.014,28.442 -5.273,40.804c0.519,22.045 2.766,33.975 23.514,34.84c18.328,-0.087 20.662,-10.634 22.91,-27.578Z" style="fill:#2a2123;fill-rule:nonzero;"/></g><g><path d="M373.358,418.6l-328.116,0c-25.015,0 -45.242,-20.227 -45.242,-45.242l-0,-328.116c-0,-25.015 20.227,-45.242 45.242,-45.242l328.116,-0c25.015,-0 45.242,20.227 45.242,45.242l-0,328.116c-0,25.015 -20.227,45.242 -45.242,45.242Z" style="fill:url(#_Linear1);fill-rule:nonzero;"/><path d="M418.6,357.763l-0,15.595c-0,11.681 -4.411,22.318 -11.66,30.339c-8.275,9.156 -20.248,14.903 -33.582,14.903l-157.481,-0l-95.594,-95.473c2.993,2.629 6.824,4.063 10.655,4.063c4.169,0 8.338,-1.698 11.426,-4.786l44.006,-40.455l-32.271,-0l-10.191,-10.191l52.345,-0.154l55.278,-49.102c4.169,-4.478 6.33,-10.191 6.176,-16.059c0.029,-1.018 -0.024,-2.052 -0.157,-3.091c-0.574,-4.474 -2.636,-9.024 -6.019,-12.658l167.069,167.069Zm-232.693,-226.053l9.728,9.728l-50.955,-0l-9.727,-9.728l50.954,-0Z" style="fill:#493e5e;"/><g><path d="M309.434,301.559l-31.963,23.624c-1.698,1.235 -3.86,2.007 -6.022,2.007l-65.778,0c-9.264,0 -13.587,-11.426 -6.794,-17.602l26.404,-23.624c1.853,-1.699 4.169,-2.625 6.794,-2.625l71.182,-0c9.882,-0 13.897,12.352 6.177,18.22Z" style="fill:#fff;fill-rule:nonzero;"/><path d="M186.37,281.949l-44.006,40.455c-3.088,3.088 -7.257,4.786 -11.426,4.786c-4.169,0 -8.338,-1.698 -11.426,-4.786c-6.485,-6.485 -6.485,-16.522 -0,-22.853l15.749,-17.602l51.109,-0Z" style="fill:#fff;fill-rule:nonzero;"/><path d="M251.531,190.694c4.169,4.478 6.33,10.345 6.176,15.749c0.154,5.868 -2.007,11.581 -6.176,16.059l-55.278,49.102l-52.345,0.154l59.756,-65.16l-59.756,-65.16l52.808,-0l54.815,49.256Z" style="fill:#fff;fill-rule:nonzero;"/><path d="M185.907,131.71l-50.954,-0l-15.904,-17.603c-6.486,-6.33 -6.486,-16.367 -0,-22.852c3.088,-3.088 7.257,-4.787 11.426,-4.787c4.169,0 8.338,1.699 11.426,4.787l44.006,40.455Z" style="fill:#fff;fill-rule:nonzero;"/></g></g></g><defs><linearGradient id="_Linear1" x1="0" y1="0" x2="1" y2="0" gradientUnits="userSpaceOnUse" gradientTransform="matrix(2.56413e-14,418.754,-418.754,2.56413e-14,206.984,0)"><stop offset="0" style="stop-color:#d8a9ca;stop-opacity:1"/><stop offset="1" style="stop-color:#53519b;stop-opacity:1"/></linearGradient></defs></svg>
