<?xml version="1.0" encoding="UTF-8" standalone="no"?>
<!DOCTYPE svg PUBLIC "-//W3C//DTD SVG 1.1//EN" "http://www.w3.org/Graphics/SVG/1.1/DTD/svg11.dtd">
<svg width="100%" height="100%" viewBox="0 0 250 382" version="1.1" xmlns="http://www.w3.org/2000/svg" xmlns:xlink="http://www.w3.org/1999/xlink" xml:space="preserve" xmlns:serif="http://www.serif.com/" style="fill-rule:evenodd;clip-rule:evenodd;stroke-linejoin:round;stroke-miterlimit:2;">
    <g id="Name">
        <path d="M250,380.027l-17.8,0l-17.116,-23.048l-6.503,9.242l-0,13.806l-14.834,0l0,-85.805l14.834,-0l-0,54.199l20.766,-30.922l16.773,-0l-21.337,29.21l25.217,33.318Z" style="fill-rule:nonzero;"/>
        <path d="M168.074,356.18l13.464,-0.114c-0.076,0.608 -0.152,1.711 -0.228,3.309c-0.076,1.597 -0.133,2.681 -0.171,3.252c-0.038,0.57 -0.133,1.464 -0.286,2.681c-0.152,1.217 -0.323,2.111 -0.513,2.682c-0.19,0.57 -0.437,1.312 -0.742,2.225c-1.369,3.955 -5.096,7.074 -11.182,9.356c-3.879,1.369 -7.93,2.054 -12.152,2.054c-4.222,-0 -8.044,-0.685 -11.467,-2.054c-3.423,-1.369 -6.124,-3.119 -8.101,-5.249c-4.488,-4.716 -6.733,-13.559 -6.733,-26.529c0,-12.969 2.245,-21.812 6.733,-26.529c1.977,-2.13 4.678,-3.879 8.101,-5.248c3.423,-1.37 7.226,-2.054 11.41,-2.054c8.216,-0 14.453,2.054 18.713,6.161c4.26,4.108 6.39,9.813 6.39,17.116l-13.464,-0c-0,-3.347 -0.837,-5.839 -2.511,-7.474c-1.673,-1.636 -4.773,-2.453 -9.299,-2.453c-4.526,-0 -7.531,1.407 -9.014,4.222c-1.483,2.814 -2.225,7.036 -2.225,12.665l-0,5.933c-0,9.053 1.749,14.606 5.249,16.659c1.597,0.989 3.689,1.484 6.275,1.484c2.587,-0 4.698,-0.247 6.333,-0.742c1.636,-0.494 2.815,-1.35 3.537,-2.567c0.723,-1.217 1.198,-2.415 1.427,-3.594c0.228,-1.18 0.38,-2.91 0.456,-5.192Z" style="fill-rule:nonzero;"/>
        <path d="M110.908,290c3.575,0 5.896,0.551 6.961,1.654c1.065,1.103 1.597,3.424 1.597,6.961c-0,3.537 -0.552,5.857 -1.654,6.96c-1.103,1.103 -3.424,1.655 -6.961,1.655c-3.537,-0 -5.857,-0.571 -6.96,-1.712c-1.103,-1.141 -1.655,-3.461 -1.655,-6.96c0,-3.499 0.552,-5.801 1.655,-6.904c1.103,-1.103 3.442,-1.654 7.017,-1.654Zm7.303,90.027l-14.834,0l0,-62.756l14.834,-0l-0,62.756Z" style="fill-rule:nonzero;"/>
        <path d="M87.403,380.027l-14.833,0.114l-0,-85.919l14.833,-0l0,85.805Z" style="fill-rule:nonzero;"/>
        <path d="M46.098,348.535l14.719,-0c-0,10.345 -2.586,18.294 -7.759,23.847c-5.173,5.553 -12.475,8.33 -21.908,8.33c-20.767,0 -31.15,-12.209 -31.15,-36.627l0,-6.846c0,-19.246 5.325,-31.303 15.974,-36.171c4.184,-1.978 9.243,-2.967 15.176,-2.967c8.672,0 15.727,2.377 21.166,7.132c5.439,4.754 8.159,11.619 8.159,20.595l-14.834,0c-0.836,-4.488 -2.32,-7.873 -4.45,-10.155c-2.13,-2.282 -5.477,-3.423 -10.041,-3.423c-5.325,0 -9.28,1.674 -11.867,5.021c-1.825,2.358 -2.89,6.389 -3.194,12.095c-0.153,1.825 -0.229,4.297 -0.229,7.416l0,7.075c0,8.748 1.217,14.719 3.652,17.914c2.51,3.195 6.408,4.792 11.695,4.792c5.287,0 8.938,-1.464 10.954,-4.393c2.016,-2.928 3.328,-7.474 3.937,-13.635Z" style="fill-rule:nonzero;"/>
    </g>
    <g id="Icon">
        <path id="Box" d="M250,25l0,200c0,13.798 -11.202,25 -25,25l-200,0c-13.798,0 -25,-11.202 -25,-25l0,-200c0,-13.798 11.202,-25 25,-25l200,0c13.798,0 25,11.202 25,25Z" style="fill:url(#_Linear1);"/>
        <path id="Shadow" d="M250,217.317l0,7.683c0,4.211 -1.043,8.18 -2.885,11.663c-1.43,2.703 -3.341,5.114 -5.619,7.116c-4.404,3.872 -10.178,6.221 -16.496,6.221l-102.412,-0l-54.442,-54.442c1.825,1.628 4.175,2.517 6.525,2.517c2.532,-0 5.063,-1.031 6.938,-2.906l26.717,-24.562l-19.593,0l-6.187,-6.187l31.78,-0.094l33.561,-29.811c2.531,-2.718 3.843,-6.187 3.75,-9.749c0.017,-0.618 -0.015,-1.246 -0.096,-1.877c-0.348,-2.717 -1.6,-5.479 -3.654,-7.685l102.113,102.113Zm-141.955,-137.924l5.906,5.906l-30.936,-0l-5.906,-5.906l30.936,-0Zm28.03,92.058c-1.594,0 -3,0.563 -4.125,1.594l-16.03,14.343c-2.906,2.641 -2.462,6.864 0.019,9.13c1.042,0.951 2.443,1.557 4.105,1.557l39.936,-0c1.313,-0 2.625,-0.469 3.656,-1.219l19.406,-14.343c3.149,-2.394 3.082,-6.566 0.878,-9.045c-1.076,-1.21 -2.66,-2.017 -4.628,-2.017l-43.217,0Z" style="fill:#493e5e;"/>
        <g id="Icon1" serif:id="Icon">
            <path d="M183.042,182.513l-19.406,14.343c-1.031,0.75 -2.343,1.219 -3.656,1.219l-39.936,-0c-5.624,-0 -8.249,-6.937 -4.124,-10.687l16.03,-14.343c1.125,-1.031 2.531,-1.594 4.125,-1.594l43.217,0c5.999,0 8.437,7.5 3.75,11.062Z" style="fill:#fff;fill-rule:nonzero;"/>
            <path d="M108.326,170.607l-26.717,24.562c-1.875,1.875 -4.406,2.906 -6.938,2.906c-2.531,-0 -5.062,-1.031 -6.937,-2.906c-3.937,-3.938 -3.937,-10.031 0,-13.875l9.562,-10.687l31.03,0Z" style="fill:#fff;fill-rule:nonzero;"/>
            <path d="M147.887,115.204l-33.28,-29.905l-32.061,-0l36.28,39.56l-36.28,39.561l31.78,-0.094l33.561,-29.811c2.531,-2.718 3.843,-6.187 3.75,-9.749c0.093,-3.281 -1.219,-6.844 -3.75,-9.562Z" style="fill:#fff;fill-rule:nonzero;"/>
            <path d="M108.045,79.393l-26.718,-24.562c-1.875,-1.875 -4.406,-2.906 -6.937,-2.906c-2.531,0 -5.062,1.031 -6.937,2.906c-3.937,3.938 -3.937,10.031 -0,13.875l9.656,10.687l30.936,-0Z" style="fill:#fff;fill-rule:nonzero;"/>
        </g>
    </g>
    <defs>
        <linearGradient id="_Linear1" x1="0" y1="0" x2="1" y2="0" gradientUnits="userSpaceOnUse" gradientTransform="matrix(1.53081e-14,250,-250,1.53081e-14,133.795,0)"><stop offset="0" style="stop-color:#d8a9ca;stop-opacity:1"/><stop offset="1" style="stop-color:#53519b;stop-opacity:1"/></linearGradient>
    </defs>
</svg>
