<?xml version="1.0" encoding="UTF-8" standalone="no"?><!DOCTYPE svg PUBLIC "-//W3C//DTD SVG 1.1//EN" "http://www.w3.org/Graphics/SVG/1.1/DTD/svg11.dtd"><svg width="100%" height="100%" viewBox="0 0 1000 1000" version="1.1" xmlns="http://www.w3.org/2000/svg" xmlns:xlink="http://www.w3.org/1999/xlink" xml:space="preserve" xmlns:serif="http://www.serif.com/" style="fill-rule:evenodd;clip-rule:evenodd;stroke-linejoin:round;stroke-miterlimit:2;"><g><path d="M897.138,893.521l-132.778,98.14c-7.056,5.132 -16.036,8.339 -25.016,8.339l-273.252,-0c-38.486,-0 -56.446,-47.466 -28.223,-73.124l109.686,-98.14c7.697,-7.055 17.318,-10.904 28.223,-10.904l295.702,-0c41.052,-0 57.73,51.315 25.658,75.689Z" style="fill:#5c549e;fill-rule:nonzero;"/><path d="M457.753,499.038l-351.507,-384.221c-26.94,-26.299 -26.94,-67.992 0,-94.932c12.829,-12.829 30.148,-19.885 47.466,-19.885c17.319,0 34.638,7.056 47.467,19.885l455.42,413.085c17.319,18.602 26.299,42.976 25.657,65.426c0.642,24.375 -8.338,48.108 -25.657,66.71l-453.496,415.009c-12.829,12.829 -30.147,19.885 -47.466,19.885c-17.319,0 -34.638,-7.056 -47.467,-19.885c-26.94,-26.94 -26.94,-68.633 0,-94.932l349.583,-386.145Z" style="fill:#5c549e;"/></g></svg>
