<?xml version="1.0" encoding="UTF-8" standalone="no"?>
<!DOCTYPE svg PUBLIC "-//W3C//DTD SVG 1.1//EN" "http://www.w3.org/Graphics/SVG/1.1/DTD/svg11.dtd">
<svg width="100%" height="100%" viewBox="0 0 460 170" version="1.1" xmlns="http://www.w3.org/2000/svg" xmlns:xlink="http://www.w3.org/1999/xlink" xml:space="preserve" xmlns:serif="http://www.serif.com/" style="fill-rule:evenodd;clip-rule:evenodd;stroke-linejoin:round;stroke-miterlimit:2;">
    <g id="Name">
        <path d="M460,129.215l-17.8,-0l-17.116,-23.049l-6.503,9.242l-0,13.807l-14.834,-0l0,-85.806l14.834,0l-0,54.199l20.766,-30.922l16.773,0l-21.337,29.211l25.217,33.318Z" style="fill-rule:nonzero;"/>
        <path d="M378.074,105.367l13.464,-0.114c-0.076,0.609 -0.152,1.712 -0.228,3.309c-0.076,1.598 -0.133,2.682 -0.171,3.252c-0.038,0.571 -0.133,1.465 -0.286,2.682c-0.152,1.217 -0.323,2.111 -0.513,2.681c-0.19,0.571 -0.437,1.312 -0.742,2.225c-1.369,3.956 -5.096,7.074 -11.182,9.357c-3.879,1.369 -7.93,2.053 -12.152,2.053c-4.222,0 -8.044,-0.684 -11.467,-2.053c-3.423,-1.37 -6.124,-3.119 -8.101,-5.249c-4.488,-4.716 -6.733,-13.559 -6.733,-26.529c0,-12.97 2.245,-21.813 6.733,-26.529c1.977,-2.13 4.678,-3.88 8.101,-5.249c3.423,-1.369 7.226,-2.054 11.41,-2.054c8.216,0 14.453,2.054 18.713,6.162c4.26,4.108 6.39,9.813 6.39,17.115l-13.464,0c-0,-3.347 -0.837,-5.838 -2.511,-7.473c-1.673,-1.636 -4.773,-2.454 -9.299,-2.454c-4.526,0 -7.531,1.408 -9.014,4.222c-1.483,2.815 -2.225,7.036 -2.225,12.666l-0,5.933c-0,9.052 1.749,14.605 5.249,16.659c1.597,0.989 3.689,1.483 6.275,1.483c2.587,0 4.698,-0.247 6.333,-0.741c1.636,-0.495 2.815,-1.351 3.537,-2.568c0.723,-1.217 1.198,-2.415 1.427,-3.594c0.228,-1.179 0.38,-2.91 0.456,-5.192Z" style="fill-rule:nonzero;"/>
        <path d="M320.908,39.188c3.575,-0 5.896,0.551 6.961,1.654c1.065,1.103 1.597,3.423 1.597,6.96c-0,3.538 -0.552,5.858 -1.654,6.961c-1.103,1.103 -3.424,1.654 -6.961,1.654c-3.537,0 -5.857,-0.57 -6.96,-1.711c-1.103,-1.141 -1.655,-3.462 -1.655,-6.961c0,-3.499 0.552,-5.8 1.655,-6.903c1.103,-1.103 3.442,-1.654 7.017,-1.654Zm7.303,90.027l-14.834,-0l0,-62.757l14.834,0l-0,62.757Z" style="fill-rule:nonzero;"/>
        <path d="M297.403,129.215l-14.833,0.114l-0,-85.92l14.833,0l0,85.806Z" style="fill-rule:nonzero;"/>
        <path d="M256.098,97.723l14.719,-0c-0,10.345 -2.586,18.294 -7.759,23.847c-5.173,5.553 -12.475,8.33 -21.908,8.33c-20.767,-0 -31.15,-12.209 -31.15,-36.628l-0,-6.846c-0,-19.245 5.325,-31.302 15.974,-36.17c4.184,-1.978 9.243,-2.967 15.176,-2.967c8.672,-0 15.727,2.377 21.166,7.131c5.439,4.755 8.159,11.62 8.159,20.596l-14.834,-0c-0.836,-4.488 -2.32,-7.873 -4.45,-10.155c-2.13,-2.282 -5.477,-3.423 -10.041,-3.423c-5.325,-0 -9.28,1.673 -11.867,5.02c-1.825,2.358 -2.89,6.39 -3.194,12.095c-0.153,1.826 -0.229,4.298 -0.229,7.417l0,7.074c0,8.748 1.217,14.72 3.652,17.914c2.51,3.195 6.408,4.793 11.695,4.793c5.287,-0 8.938,-1.465 10.954,-4.393c2.016,-2.929 3.328,-7.474 3.937,-13.635Z" style="fill-rule:nonzero;"/>
    </g>
    <g id="Icon">
        <path id="Box" d="M170,17l-0,136c-0,9.383 -7.617,17 -17,17l-136,0c-9.383,0 -17,-7.617 -17,-17l-0,-136c-0,-9.383 7.617,-17 17,-17l136,0c9.383,0 17,7.617 17,17Z" style="fill:url(#_Linear1);"/>
        <path id="Shadow" d="M170,147.775l-0,5.225c-0,2.863 -0.709,5.562 -1.962,7.931c-0.972,1.838 -2.272,3.477 -3.821,4.839c-2.994,2.633 -6.921,4.23 -11.217,4.23l-69.64,0l-37.021,-37.021c1.241,1.107 2.839,1.712 4.438,1.712c1.721,-0 3.442,-0.701 4.717,-1.976l18.168,-16.702l-13.323,-0l-4.208,-4.207l21.611,-0.064l22.821,-20.272c1.721,-1.848 2.614,-4.207 2.55,-6.629c0.012,-0.421 -0.01,-0.848 -0.065,-1.276c-0.237,-1.848 -1.088,-3.726 -2.485,-5.227l69.437,69.437Zm-96.529,-93.788l4.016,4.016l-21.037,0l-4.016,-4.016l21.037,0Zm19.06,62.6c-1.084,-0 -2.04,0.382 -2.805,1.083l-10.901,9.754c-1.975,1.796 -1.674,4.667 0.014,6.208c0.708,0.647 1.661,1.059 2.791,1.059l27.156,-0c0.893,-0 1.785,-0.319 2.487,-0.829l13.195,-9.753c2.142,-1.628 2.096,-4.465 0.598,-6.151c-0.732,-0.823 -1.809,-1.371 -3.148,-1.371l-29.387,-0Z" style="fill:#493e5e;"/>
        <g id="Icon1" serif:id="Icon">
            <path d="M124.468,124.109l-13.195,9.753c-0.702,0.51 -1.594,0.829 -2.487,0.829l-27.156,-0c-3.825,-0 -5.61,-4.717 -2.805,-7.267l10.901,-9.754c0.765,-0.701 1.721,-1.083 2.805,-1.083l29.387,-0c4.08,-0 5.738,5.099 2.55,7.522Z" style="fill:#fff;fill-rule:nonzero;"/>
            <path d="M73.662,116.013l-18.168,16.702c-1.275,1.275 -2.996,1.976 -4.717,1.976c-1.722,-0 -3.443,-0.701 -4.718,-1.976c-2.677,-2.678 -2.677,-6.821 0,-9.435l6.502,-7.267l21.101,-0Z" style="fill:#fff;fill-rule:nonzero;"/>
            <path d="M100.563,78.338l-22.63,-20.335l-21.802,0l24.67,26.901l-24.67,26.902l21.611,-0.064l22.821,-20.272c1.721,-1.848 2.614,-4.207 2.55,-6.629c0.064,-2.232 -0.829,-4.654 -2.55,-6.503Z" style="fill:#fff;fill-rule:nonzero;"/>
            <path d="M73.471,53.987l-18.168,-16.702c-1.275,-1.275 -2.997,-1.976 -4.718,-1.976c-1.721,0 -3.442,0.701 -4.717,1.976c-2.677,2.678 -2.677,6.821 0,9.435l6.566,7.267l21.037,0Z" style="fill:#fff;fill-rule:nonzero;"/>
        </g>
    </g>
    <defs>
        <linearGradient id="_Linear1" x1="0" y1="0" x2="1" y2="0" gradientUnits="userSpaceOnUse" gradientTransform="matrix(1.04095e-14,170,-170,1.04095e-14,90.9806,0)"><stop offset="0" style="stop-color:#d8a9ca;stop-opacity:1"/><stop offset="1" style="stop-color:#53519b;stop-opacity:1"/></linearGradient>
    </defs>
</svg>
