<?xml version="1.0" encoding="UTF-8" standalone="no"?><!DOCTYPE svg PUBLIC "-//W3C//DTD SVG 1.1//EN" "http://www.w3.org/Graphics/SVG/1.1/DTD/svg11.dtd"><svg width="100%" height="100%" viewBox="0 0 419 615" version="1.1" xmlns="http://www.w3.org/2000/svg" xmlns:xlink="http://www.w3.org/1999/xlink" xml:space="preserve" xmlns:serif="http://www.serif.com/" style="fill-rule:evenodd;clip-rule:evenodd;stroke-linejoin:round;stroke-miterlimit:2;"><g><g><path d="M418.6,611.848l-27.318,-0l-26.281,-35.359l-9.942,14.178l-0,21.181l-22.736,-0l-0,-131.664l22.736,-0l-0,83.165l31.9,-47.461l25.762,-0l-32.764,44.781l38.643,51.179Z" style="fill:#2a2123;fill-rule:nonzero;"/><path d="M284.17,575.193l20.661,-0.173c-0.691,6.916 -0.259,15.129 -2.939,21.699c-9.596,21.18 -50.487,22.996 -65.789,6.311c-13.745,-11.412 -13.745,-69.939 0,-81.437c22.737,-21.699 70.803,-12.103 68.469,24.466l-20.662,-0c0,-5.101 -1.296,-8.991 -3.89,-11.498c-4.668,-5.101 -24.984,-5.792 -28.096,2.68c-3.458,5.36 -3.631,19.884 -3.372,28.529c0,13.918 2.68,22.39 8.04,25.589c4.409,3.112 14.61,2.593 19.365,1.124c7.694,-2.594 7.78,-9.51 8.213,-17.29Z" style="fill:#2a2123;fill-rule:nonzero;"/><path d="M187.691,473.7c5.446,0 9.077,0.865 10.72,2.507c1.642,1.729 2.421,5.274 2.421,10.72c-0,5.446 -0.865,8.991 -2.508,10.72c-1.729,1.729 -5.273,2.507 -10.719,2.507c-5.447,-0 -8.991,-0.865 -10.72,-2.594c-1.729,-1.729 -2.507,-5.273 -2.507,-10.72c-0,-5.359 0.864,-8.904 2.507,-10.633c1.729,-1.642 5.273,-2.507 10.806,-2.507Zm11.239,138.148l-22.737,-0l0,-96.306l22.737,-0l-0,96.306Z" style="fill:#2a2123;fill-rule:nonzero;"/><path d="M142.91,611.848l-22.737,0.173l0,-131.837l22.737,-0l-0,131.664Z" style="fill:#2a2123;fill-rule:nonzero;"/><path d="M70.724,563.522l22.563,-0c0.173,30.171 -15.301,49.45 -45.473,49.363c-36.395,1.816 -48.152,-27.232 -47.807,-66.74c0.346,-40.631 14.178,-59.737 47.807,-60.083c26.195,-0.086 45.387,15.129 44.955,42.534l-22.737,-0c-1.297,-6.916 -3.544,-12.103 -6.829,-15.561c-7.003,-7.954 -27.751,-6.657 -33.63,2.421c-6.483,8.472 -5.014,28.442 -5.273,40.804c0.519,22.045 2.766,33.975 23.514,34.84c18.328,-0.087 20.662,-10.634 22.91,-27.578Z" style="fill:#2a2123;fill-rule:nonzero;"/></g><g><path d="M389.3,418.7l-360,0c-16.2,0 -29.3,-13.1 -29.3,-29.3l-0,-360.1c-0,-16.2 13.1,-29.3 29.3,-29.3l360,0c16.2,0 29.3,13.1 29.3,29.3l-0,360.1c-0,16.2 -13.1,29.3 -29.3,29.3Z" style="fill:url(#_Linear1);fill-rule:nonzero;"/><g><path d="M215.8,418.7l-95.8,-95.7c3,2.7 6.9,4.2 10.9,4.2c4.2,0 8.4,-1.7 11.5,-4.7l44.1,-40.5l-32.2,0l-10.2,-10l52.3,-0.2l55.2,-49c4.2,-4.5 6.3,-10.3 6.2,-16c0.1,-5.8 -2,-11.5 -6.2,-16l167,167l-0,31.6c-0,16.2 -13.1,29.3 -29.3,29.3l-173.5,0Z" style="fill:#493e5e;"/><path d="M196.8,141.5l-52.8,0l-9.1,-9.8l51.1,0l10.8,9.8Z" style="fill:#493e5e;fill-rule:nonzero;"/></g><g><path d="M309.4,301.5l-31.8,23.7c-1.7,1.3 -3.8,2 -6,2l-65.8,0c-9.3,0 -13.6,-11.4 -6.7,-17.6l26.4,-23.6c1.9,-1.7 4.2,-2.6 6.7,-2.6l71.2,0c9.8,-0.1 13.9,12.3 6,18.1Z" style="fill:#fff;fill-rule:nonzero;"/><g><path d="M186.4,281.9l-44.1,40.5c-3.1,3.1 -7.3,4.7 -11.4,4.7c-4.1,0 -8.4,-1.7 -11.4,-4.7c-6.4,-6.4 -6.4,-16.5 0,-22.9l15.9,-17.6l51,-0Z" style="fill:#fff;fill-rule:nonzero;"/><path d="M186,131.7l-51,0l-15.9,-17.6c-6.4,-6.4 -6.4,-16.5 0,-22.9c3,-3 7.2,-4.7 11.4,-4.7c4.1,0 8.3,1.6 11.4,4.7l44.1,40.5Z" style="fill:#fff;fill-rule:nonzero;"/><path d="M251.6,190.7c4.2,4.5 6.3,10.3 6.2,16.3c0.1,5.7 -2,11.5 -6.2,16l-55.2,49l-52.4,0.1l59.8,-65.3l-59.8,-65.3l52.8,0l54.8,49.2Z" style="fill:#fff;fill-rule:nonzero;"/></g></g></g></g><defs><linearGradient id="_Linear1" x1="0" y1="0" x2="1" y2="0" gradientUnits="userSpaceOnUse" gradientTransform="matrix(-4.6458,418.929,-418.929,-4.6458,211.664,-4.0246)"><stop offset="0" style="stop-color:#d8a9ca;stop-opacity:1"/><stop offset="1" style="stop-color:#53519b;stop-opacity:1"/></linearGradient></defs></svg>
